<?xml version="1.0" encoding="utf-8"?>
<!-- Generator: Adobe Illustrator 12.0.0, SVG Export Plug-In . SVG Version: 6.00 Build 51448)  -->
<!DOCTYPE svg PUBLIC "-//W3C//DTD SVG 1.1//EN" "http://www.w3.org/Graphics/SVG/1.1/DTD/svg11.dtd" [
	<!ENTITY ns_svg "http://www.w3.org/2000/svg">
	<!ENTITY ns_xlink "http://www.w3.org/1999/xlink">
]>
<svg  version="1.1" id="Ebene_1" xmlns="&ns_svg;" xmlns:xlink="&ns_xlink;" width="1700.033" height="432.09"
	 viewBox="0 0 1700.033 432.09" overflow="visible" enable-background="new 0 0 1700.033 432.09" xml:space="preserve">
<path id="cube48" fill="#FFFFFF" d="M593.869,204.818c-4.083,0-7.398-0.572-9.948-1.721c-2.551-1.145-5.039-2.673-7.458-4.588
	c-2.423-1.913-4.783-3.51-7.078-4.785c-2.552-1.274-6.314-2.421-11.287-3.441c-4.972-1.019-8.989-1.533-12.046-1.533
	c-19.126,0-34.11,5.931-44.95,17.792c-10.838,11.86-16.254,27.358-16.254,46.489c0,18.365,5.48,33.604,16.447,45.719
	c10.963,12.117,24.989,18.174,42.078,18.174c12.497,0,21.804-1.531,27.925-4.592c1.531-0.764,3.634-2.102,6.311-4.018
	c2.677-1.912,5.165-3.381,7.46-4.4c2.295-1.02,5.101-1.531,8.415-1.531c6.373,0,11.412,2.045,15.108,6.123
	c3.698,4.082,5.549,9.313,5.549,15.686c0,6.127-3.572,11.865-10.711,17.221c-7.14,5.354-16.575,9.627-28.305,12.814
	c-11.734,3.188-24.227,4.783-37.488,4.783c-19.639,0-36.918-4.588-51.833-13.771c-14.918-9.186-26.458-21.875-34.621-38.072
	c-8.163-16.195-12.241-34.24-12.241-54.135c0-20.662,4.272-39.024,12.817-55.095c8.542-16.069,20.465-28.63,35.767-37.685
	c15.297-9.057,32.639-13.586,52.021-13.586c21.675,0,39.145,3.382,52.408,10.142c13.259,6.757,19.893,15.749,19.893,26.971
	c0,5.611-1.662,10.522-4.975,14.73C603.558,202.717,599.224,204.818,593.869,204.818L593.869,204.818z M801.023,335.67
	c-15.174,15.557-36.788,23.338-64.838,23.338c-28.056,0-49.605-7.781-64.651-23.338c-15.046-15.559-22.568-37.111-22.568-64.66
	v-97.179c0-6.632,2.167-12.181,6.503-16.646c4.334-4.462,9.819-6.696,16.449-6.696s12.112,2.233,16.446,6.696
	c4.334,4.464,6.506,10.014,6.506,16.646v97.179c0,15.559,3.439,27.1,10.325,34.627c6.886,7.525,17.215,11.285,30.989,11.285
	c14.023,0,24.476-3.76,31.364-11.285c6.886-7.527,10.33-19.068,10.33-34.627v-97.179c0-6.632,2.167-12.181,6.501-16.646
	c4.334-4.462,9.82-6.696,16.454-6.696c6.629,0,12.112,2.233,16.446,6.696c4.334,4.464,6.504,10.014,6.504,16.646v97.179
	C823.784,298.559,816.197,320.112,801.023,335.67L801.023,335.67z M1053.301,307.551c-8.162,16.195-19.314,28.822-33.471,37.875
	c-14.154,9.055-29.771,13.582-46.857,13.582c-12.242,0-23.783-2.488-34.619-7.461c-10.842-4.973-19.83-11.029-26.969-18.174v2.297
	c0,6.631-2.17,12.18-6.504,16.645c-4.334,4.459-9.816,6.693-16.447,6.693s-12.115-2.172-16.451-6.504
	c-4.334-4.334-6.5-9.945-6.5-16.834V95.395c0-6.631,2.166-12.176,6.5-16.641c4.336-4.462,9.82-6.695,16.451-6.695
	s12.113,2.233,16.447,6.695c4.334,4.465,6.504,10.01,6.504,16.641v79.965c6.121-7.65,14.664-14.348,25.629-20.087
	c10.965-5.737,22.441-8.609,34.428-8.609c17.594,0,33.535,4.529,47.816,13.586c14.279,9.055,25.566,21.616,33.854,37.685
	c8.289,16.071,12.436,34.304,12.436,54.71C1065.547,273.049,1061.465,291.354,1053.301,307.551L1053.301,307.551z M1006.061,206.923
	c-10.33-12.115-23.783-18.174-40.357-18.174s-30.092,6.06-40.545,18.174c-10.459,12.116-15.686,27.356-15.686,45.722
	s5.227,33.67,15.686,45.914c10.453,12.242,23.971,18.363,40.545,18.363c16.32,0,29.709-6.121,40.168-18.363
	c10.453-12.244,15.682-27.549,15.682-45.914S1016.389,219.04,1006.061,206.923L1006.061,206.923z M1278.805,262.975
	c-4.592,3.828-9.949,5.738-16.064,5.738h-126.238c3.057,15.053,10.074,26.848,21.039,35.395
	c10.967,8.545,23.334,12.814,37.105,12.814c10.457,0,18.613-0.955,24.482-2.869c5.867-1.914,10.518-3.953,13.963-6.121
	c3.439-2.168,5.801-3.635,7.078-4.4c4.59-2.297,8.924-3.445,13.006-3.445c5.354,0,9.941,1.916,13.77,5.74
	c3.824,3.828,5.74,8.293,5.74,13.391c0,6.889-3.572,13.139-10.713,18.75c-7.145,5.867-16.707,10.842-28.691,14.92
	c-11.986,4.076-24.098,6.121-36.34,6.121c-21.42,0-40.104-4.465-56.039-13.393c-15.941-8.926-28.248-21.23-36.916-36.918
	c-8.672-15.686-13.006-33.348-13.006-52.992c0-21.936,4.588-41.194,13.771-57.771c9.18-16.58,21.293-29.269,36.34-38.072
	c15.047-8.799,31.111-13.199,48.197-13.199c16.832,0,32.707,4.593,47.629,13.776c14.916,9.183,26.84,21.554,35.768,37.113
	c8.924,15.559,13.387,32.392,13.387,50.501C1285.814,254.176,1283.395,259.151,1278.805,262.975L1278.805,262.975z
	 M1237.107,227.778c-1.02-10.715-6.25-19.898-15.684-27.548c-9.438-7.65-20.15-11.48-32.135-11.48
	c-29.582,0-47.047,13.904-52.402,41.705h100.221V227.778L1237.107,227.778z M1491.924,269.481c-2.168,2.041-4.781,3.059-7.84,3.059
	h-25.627v71.164c0,3.318-1.148,6.061-3.445,8.229c-2.295,2.168-5.1,3.25-8.416,3.25c-3.318,0-5.998-1.082-8.037-3.25
	s-3.057-4.91-3.057-8.229V272.54h-112.467c-3.057,0-5.734-1.211-8.029-3.635c-2.295-2.42-3.443-5.164-3.443-8.227
	c0-3.059,0.893-5.609,2.676-7.648l123.178-161.079c2.037-3.06,5.229-4.593,9.563-4.593c3.314,0,6.055,1.087,8.225,3.254
	c2.166,2.172,3.254,4.911,3.254,8.227v152.275h25.627c3.059,0,5.672,1.023,7.84,3.063s3.252,4.592,3.252,7.652
	S1494.092,267.442,1491.924,269.481L1491.924,269.481z M1435.502,128.682l-92.574,122.432h92.574V128.682L1435.502,128.682z
	 M1656.805,218.975c12.752,6.125,23.143,14.861,31.178,26.209c8.031,11.352,12.051,24.168,12.051,38.449
	c0,13.52-3.635,26.02-10.902,37.498c-7.268,11.48-17.219,20.535-29.838,27.166c-12.625,6.633-26.461,9.945-41.508,9.945
	s-28.816-3.313-41.313-9.945c-12.498-6.631-22.379-15.686-29.646-27.166c-7.268-11.479-10.902-23.979-10.902-37.498
	c0-14.789,3.955-27.67,11.861-38.641c7.904-10.967,17.977-19.512,30.217-25.633c-10.201-5.354-18.744-13.329-25.631-23.913
	c-6.887-10.586-10.326-22.382-10.326-35.392c0-13.52,3.379-25.824,10.137-36.923c6.758-11.094,15.939-19.831,27.541-26.208
	c11.604-6.373,24.289-9.565,38.063-9.565c13.77,0,26.459,3.192,38.061,9.565c11.602,6.377,20.721,15.115,27.352,26.208
	c6.629,11.099,9.947,23.403,9.947,36.923c0,13.266-3.508,24.998-10.52,35.202C1675.611,205.458,1667.004,213.363,1656.805,218.975
	L1656.805,218.975z M1567.293,256.473c-5.357,8.162-8.035,17.215-8.035,27.16c0,15.307,5.418,27.867,16.256,37.689
	c10.84,9.822,24.93,14.729,42.271,14.729s31.496-4.906,42.461-14.729s16.449-22.383,16.449-37.689c0-9.945-2.68-18.998-8.035-27.16
	c-5.354-8.164-12.559-14.604-21.613-19.322c-9.053-4.717-18.805-7.078-29.262-7.078s-20.146,2.361-29.07,7.078
	C1579.789,241.87,1572.646,248.309,1567.293,256.473L1567.293,256.473z M1655.273,123.327c-9.693-9.437-22.189-14.156-37.488-14.156
	c-15.555,0-28.18,4.719-37.871,14.156c-9.691,9.438-14.535,21.68-14.535,36.729c0,9.95,2.42,18.815,7.268,26.593
	c4.844,7.778,11.283,13.838,19.318,18.172c8.033,4.336,16.641,6.503,25.82,6.503c9.182,0,17.789-2.167,25.822-6.503
	c8.033-4.334,14.408-10.394,19.127-18.172c4.717-7.778,7.078-16.643,7.078-26.593
	C1669.813,145.007,1664.965,132.764,1655.273,123.327L1655.273,123.327z"/>
<path id="_x38_" fill-rule="evenodd" clip-rule="evenodd" fill="#D32027" d="M193.323,222.52l180.442-104.935l-0.091,81.374
	l0.124,51.291v78.078L193.655,432.09L193.323,222.52L193.323,222.52z M239.692,249.356l90.622-51.957l-0.023,27.238l-90.592,52.207
	L239.692,249.356L239.692,249.356z M239.683,353.417l0.016-27.924l90.674-52.633l0.041,28.881L239.683,353.417L239.683,353.417z"/>
<polygon id="_x34_" fill-rule="evenodd" clip-rule="evenodd" fill="#EE2F24" points="136.322,405.116 136.414,360.797 0,282.364 
	0.439,115.812 51.211,142.81 50.571,258.049 136.526,307.211 136.762,194.003 183.289,221.067 183.518,432.075 136.322,405.116 "/>
<polygon id="c" fill-rule="evenodd" clip-rule="evenodd" fill="#FAB317" points="187.405,0 2.007,107.171 188.202,215.145 
	374.2,107.617 292.881,59.676 243.182,88.731 278.059,109.084 188.252,160.54 98.381,108.21 187.781,56.64 214.683,71.951 
	263.81,43.292 187.405,0 "/>
</svg>
